<?xml version="1.0" encoding="utf-8"?>
<!-- Generator: Adobe Illustrator 23.0.3, SVG Export Plug-In . SVG Version: 6.00 Build 0)  -->
<svg version="1.1" id="Layer_1" xmlns="http://www.w3.org/2000/svg" xmlns:xlink="http://www.w3.org/1999/xlink" x="0px" y="0px"
	 viewBox="0 0 128.52 109.14" style="enable-background:new 0 0 128.52 109.14;" xml:space="preserve">
<style type="text/css">
	.st0{fill:#FFFFFF;}
</style>
<path class="st0" d="M116.86,31.84c0.65-0.48,1.29-0.97,1.94-1.45c0.16,0,0.16,0.16,0.32,0.16c-0.32,0.65-0.65,1.29-0.81,1.94
	c0.16,0,0.32-0.16,0.65-0.32c0.16,0.97,0.16,1.78-0.81,2.59c-0.97,0.81-4.69,4.2-5.5,5.17l2.91-2.26c1.13-0.97,2.26-1.94,3.39-2.91
	c0,0.48,0,0.65,0,0.97c0,3.56,0,7.11,0,10.67c0,0.48-0.16,1.13-0.48,1.45C99.24,67.08,79.04,86.8,59.81,106.03
	c-0.97,0.97-1.45,1.13-2.42,0c-0.81-0.97-1.94-1.94-2.91-2.91c-1.78-1.29-0.32-1.62,0-2.75c-0.48,0.32-0.81,0.48-1.13,0.81
	c0,0-1.13,0-1.13-0.16c0.48-0.65,1.62-2.1,2.1-2.75c0,0,4.69-5.82,4.69-5.98c-0.81,0.65-6.95,6.63-7.6,7.27
	c-0.48,0.48-0.65,0.65-1.13,0c-2.59-2.75-3.72-4.04-6.47-6.63c-0.16-0.16-0.32-0.32-0.32-0.32c0.48-1.13-0.48-1.62-1.13-2.1
	c-1.45-1.62-3.07-3.07-4.69-4.69c-0.16-0.16-0.16-0.16-0.32-0.32c0.16-0.16,0.16-0.48,0.48-0.81c-0.32-0.32-0.81-0.65-1.13-0.97
	c-0.97-0.97-0.97-1.45,0-2.42c2.42-2.42,5.01-5.01,7.44-7.44c3.88-3.88,7.76-7.76,11.64-11.64c1.45-1.45,3.23-2.75,4.69-4.2
	c1.94-1.94,3.72-4.04,5.66-5.98c1.45-1.62,3.07-3.07,4.53-4.69c3.23-3.23,6.63-6.63,9.86-9.86c2.1-2.1,4.36-3.88,6.47-5.82
	c2.1-2.1,3.88-4.36,5.82-6.47c1.45-1.62,2.91-2.91,4.53-4.53c2.59-2.75,5.17-5.5,7.92-8.08c2.59-2.59,5.33-5.01,7.92-7.6
	c1.45-1.29,2.75-2.75,4.04-4.04c0.32-0.32,1.13-0.97,1.45-0.97c0.16,0,0.32,1.29,0.32,1.78c0,1.94,0.16,3.88,0,5.82
	c-0.16,1.29,0,2.59,0,3.88c0,0.48-0.16,0.97-0.32,1.45c-1.29,1.13-5.01,7.92,0.16,4.04c0.16,0.32,0.16,0.81,0.16,1.13
	c0,3.72,0,7.27,0,10.99c0,0.32-0.16,0.81-0.48,0.97c-0.65,0.65-2.1,2.1-2.75,2.75C115.73,32.65,116.7,31.84,116.86,31.84z
	 M58.84,4.04c-1.45,1.29-3.07,2.75-4.53,4.2c-0.97,0.81-1.78,1.94-2.75,2.91c-1.78,1.78-3.72,3.23-5.5,5.01
	c-1.62,1.45-2.91,3.23-4.36,4.69c-1.29,1.29-2.91,2.59-4.2,3.88C25.38,37.01,13.09,49.3,0.81,61.42c-0.32,0.32-0.32,0.65-0.32,0.97
	c0.32,1.45,0.16,2.91,0.16,4.36c0,0.32-0.16,3.39,0,3.72c16.33-13.9,10.18-8.08,0.65,2.75c0,0.16-0.16,0.16-0.16,0.16
	c-0.65,0.81-0.65,2.59-0.65,3.88c-0.16,10.67,0,19.88,0,30.39c0,0.48-0.16,0.81,0.48,1.13c0.48,0.32,0.81-0.16,1.13-0.48
	c7.6-7.6,15.19-15.36,22.79-22.95c1.62-1.45,3.07-3.07,4.53-4.69c1.29-1.45,2.42-2.75,3.72-4.04c0.48-0.48,1.13-0.81,1.78-1.29
	c3.56-2.91,6.3-6.47,9.37-9.86c1.78-1.94,3.88-3.88,5.82-5.82c1.13-1.13,2.75-2.1,3.88-3.23c9.05-8.89,18.1-17.78,26.99-26.83
	c0.97-0.97,1.94-1.94,2.91-3.07c0.81-0.65,0.16-0.48,0-0.81c-0.16-0.32-0.48-0.65-0.65-0.97c-0.65-0.97-0.97-1.13-2.1-0.65
	c-0.16-0.16-0.32-0.16-0.48-0.32c-0.48-2.1-2.1-3.88-3.23-4.53c-0.81-0.81-0.65-1.62-1.78-1.45c-0.16-0.16-0.16-0.48-0.32-0.65
	c-0.16-0.16-0.48,0-0.65,0.16c-0.48,0.48-3.23,3.23-3.88,3.72c-0.81,0.65,0.97-1.78,1.13-2.1c0-0.16,0-0.16,0-0.16
	c0.16-0.48,1.62-1.62,1.78-1.94l-0.16-0.65c-0.48,0.32-0.97,0.97-1.45,1.45c-0.81,0.48-1.62,0.97-1.62,0.97
	c0.32-0.48,1.29-1.78,1.62-2.26c0.32-0.48,0.81-0.81,0.97-1.13c-0.16-0.32-0.65-0.48-0.65-0.81c-0.32-0.81-1.13-1.62-1.94-1.78
	c-1.13-0.16-2.42-0.16-2.26-1.78c0-0.16-0.16-0.16-0.16-0.32c-0.65-0.97-1.13-2.1-1.78-3.07c-0.16-0.16-0.48-0.32-0.65-0.32
	c-0.97,0-1.94,0.16-2.75,0.16c0.16-0.32,0.32-0.81,0.32-1.29s0-1.45-0.65-1.78L60.29,5.5l-0.16-2.26
	C59.32,2.75,58.67,3.88,58.84,4.04z M27.15,26.18C18.43,17.62,9.86,9.05,1.29,0.48C1.13,0.16,0.65,0,0.48,0.16
	C0.16,0.32,0,0.81,0,1.13C0,6.3,0,11.31,0,16.49c0,0.48,0.16,0.97,0.48,1.45c0.48,0.65,1.13,1.29,1.62,1.94
	c0,0.16-0.16,0.16-0.16,0.16c-0.48-0.48-0.97-0.97-1.45-1.45c0,0.16-0.16,0.16-0.16,0.16c0.48,0.65,0.81,1.29,1.29,1.94l-0.16,0.16
	c-0.48-0.48-0.81-1.13-1.29-1.62c-0.32,1.45,0,2.42,0.97,3.39c0.65,0.65,1.13,1.45,1.78,2.26l-0.16,0.16
	c-0.81-0.97-1.78-1.78-2.59-2.75C0,22.47,0,22.63,0,22.63c0,8.08,0,16,0,24.08c0,0.32,0,0.48,0.16,0.65c0.97,0.97,2.1,2.1,3.23,3.23
	c0.16-0.32,0.48-0.65,0.65-0.81c5.82-5.82,11.48-11.48,17.29-17.29c1.29-1.13,1.29-1.13,0.16-2.42c-0.65-0.65-1.13-1.45-1.78-2.26
	c0.16,0,0.16,0,0.16,0c1.13,1.13,2.1,2.1,3.23,3.07c1.45-1.45,2.91-2.91,4.36-4.36C27.32,26.35,27.32,26.35,27.15,26.18z
	 M114.76,59.16c-7.76,7.76-15.68,15.68-23.6,23.6c0,0.16,0,0.32,0,0.32c5.33,5.17,10.67,10.51,16,15.84
	c3.07,3.07,6.3,6.14,9.37,9.37c0.48,0.48,1.45,0.97,1.78,0.81c0.32,0,0.16-0.16,0.32-1.62c0-1.13,0-2.26,0-3.39
	c0-0.16,0-0.48-0.16-0.65c-0.48-0.65-1.29-1.29-1.94-1.94c-0.65-0.81-1.45-1.45-2.1-2.26c0.16,0-2.59-2.91-2.59-2.91
	c1.29,1.13,5.98,5.01,7.11,5.98c0-8.57,0-16.49,0-24.89c0-0.16-0.32-0.65-0.48-0.81c-0.48-0.48-3.07-3.72-3.56-4.2
	c0,0,2.1,1.94,2.1,1.78c0.48,0.32,1.29,1.45,1.78,1.78c0.16-0.16,0.16-0.32,0.16-0.32c0-4.53,0-9.37,0-13.74v-0.16
	c-1.13-0.97-2.1-2.1-3.23-3.23C115.41,58.67,115.41,58.67,114.76,59.16z M124.34,0.22v0.54h-1.04v2.72h-0.65V0.76h-1.04V0.22H124.34
	z M127.87,3.49l-0.12-1.92c-0.01-0.25-0.01-0.56-0.02-0.91h-0.04c-0.08,0.29-0.18,0.67-0.28,0.97l-0.59,1.81h-0.67l-0.59-1.86
	c-0.06-0.25-0.16-0.63-0.23-0.92h-0.04c0,0.3-0.01,0.61-0.02,0.91l-0.12,1.92h-0.62l0.24-3.26h0.97l0.56,1.59
	c0.07,0.25,0.13,0.49,0.22,0.83h0.01c0.08-0.3,0.16-0.58,0.23-0.82l0.56-1.61h0.94l0.25,3.26H127.87z"/>
</svg>
